<mxfile host="app.diagrams.net" agent="Mozilla/5.0 (Windows NT 10.0; Win64; x64) AppleWebKit/537.36 (KHTML, like Gecko) Chrome/128.0.0.0 Safari/537.36 Edg/128.0.0.0" version="24.7.10">
  <diagram name="ページ1" id="ghTe8VNhmOzS86tFajh4">
    <mxGraphModel dx="1248" dy="1088" grid="1" gridSize="10" guides="1" tooltips="1" connect="1" arrows="1" fold="1" page="1" pageScale="1" pageWidth="827" pageHeight="1169" math="0" shadow="0">
      <root>
        <mxCell id="0" />
        <mxCell id="1" parent="0" />
        <mxCell id="qFjIACRI58Vu8LsywiSS-2" style="edgeStyle=orthogonalEdgeStyle;rounded=0;orthogonalLoop=1;jettySize=auto;html=1;" edge="1" parent="1" source="qFjIACRI58Vu8LsywiSS-1" target="qFjIACRI58Vu8LsywiSS-3">
          <mxGeometry relative="1" as="geometry">
            <mxPoint x="250" y="497.5" as="targetPoint" />
          </mxGeometry>
        </mxCell>
        <mxCell id="qFjIACRI58Vu8LsywiSS-1" value="&lt;div&gt;Intiface Status&lt;/div&gt;" style="rounded=0;whiteSpace=wrap;html=1;" vertex="1" parent="1">
          <mxGeometry x="10" y="470" width="100" height="55" as="geometry" />
        </mxCell>
        <mxCell id="qFjIACRI58Vu8LsywiSS-4" style="edgeStyle=orthogonalEdgeStyle;rounded=0;orthogonalLoop=1;jettySize=auto;html=1;" edge="1" parent="1" source="qFjIACRI58Vu8LsywiSS-3" target="qFjIACRI58Vu8LsywiSS-8">
          <mxGeometry relative="1" as="geometry">
            <mxPoint x="200" y="617.5" as="targetPoint" />
          </mxGeometry>
        </mxCell>
        <mxCell id="qFjIACRI58Vu8LsywiSS-11" style="edgeStyle=orthogonalEdgeStyle;rounded=0;orthogonalLoop=1;jettySize=auto;html=1;exitX=1;exitY=0;exitDx=0;exitDy=0;entryX=0;entryY=0.5;entryDx=0;entryDy=0;fillColor=#f8cecc;strokeColor=#b85450;" edge="1" parent="1" source="qFjIACRI58Vu8LsywiSS-3" target="qFjIACRI58Vu8LsywiSS-7">
          <mxGeometry relative="1" as="geometry" />
        </mxCell>
        <mxCell id="qFjIACRI58Vu8LsywiSS-14" style="edgeStyle=orthogonalEdgeStyle;rounded=0;orthogonalLoop=1;jettySize=auto;html=1;exitX=1;exitY=1;exitDx=0;exitDy=0;entryX=0;entryY=0.5;entryDx=0;entryDy=0;" edge="1" parent="1" source="qFjIACRI58Vu8LsywiSS-3" target="qFjIACRI58Vu8LsywiSS-13">
          <mxGeometry relative="1" as="geometry" />
        </mxCell>
        <mxCell id="qFjIACRI58Vu8LsywiSS-20" style="edgeStyle=orthogonalEdgeStyle;rounded=0;orthogonalLoop=1;jettySize=auto;html=1;exitX=1;exitY=0.5;exitDx=0;exitDy=0;entryX=0;entryY=0.5;entryDx=0;entryDy=0;" edge="1" parent="1" source="qFjIACRI58Vu8LsywiSS-3" target="qFjIACRI58Vu8LsywiSS-19">
          <mxGeometry relative="1" as="geometry">
            <Array as="points">
              <mxPoint x="120" y="1030" />
            </Array>
          </mxGeometry>
        </mxCell>
        <mxCell id="qFjIACRI58Vu8LsywiSS-3" value="text parser" style="rounded=0;whiteSpace=wrap;html=1;" vertex="1" parent="1">
          <mxGeometry y="590" width="120" height="55" as="geometry" />
        </mxCell>
        <mxCell id="qFjIACRI58Vu8LsywiSS-36" style="edgeStyle=orthogonalEdgeStyle;rounded=0;orthogonalLoop=1;jettySize=auto;html=1;exitX=1;exitY=0.5;exitDx=0;exitDy=0;entryX=0;entryY=0.5;entryDx=0;entryDy=0;" edge="1" parent="1" source="qFjIACRI58Vu8LsywiSS-7" target="qFjIACRI58Vu8LsywiSS-22">
          <mxGeometry relative="1" as="geometry" />
        </mxCell>
        <mxCell id="qFjIACRI58Vu8LsywiSS-7" value="&lt;b&gt;device&lt;/b&gt;&lt;div&gt;(lovenseXXXX)&lt;/div&gt;&lt;div&gt;all (global)&lt;/div&gt;" style="rounded=1;whiteSpace=wrap;html=1;" vertex="1" parent="1">
          <mxGeometry x="230" y="490" width="120" height="60" as="geometry" />
        </mxCell>
        <mxCell id="qFjIACRI58Vu8LsywiSS-8" value="&lt;b&gt;item_type (wildcard)&lt;/b&gt;&lt;div&gt;orf&amp;nbsp;&lt;/div&gt;&lt;div&gt;pen&lt;/div&gt;&lt;div&gt;touch&lt;/div&gt;" style="rounded=1;whiteSpace=wrap;html=1;" vertex="1" parent="1">
          <mxGeometry x="230" y="587.5" width="120" height="60" as="geometry" />
        </mxCell>
        <mxCell id="qFjIACRI58Vu8LsywiSS-23" style="edgeStyle=orthogonalEdgeStyle;rounded=0;orthogonalLoop=1;jettySize=auto;html=1;exitX=1;exitY=0.5;exitDx=0;exitDy=0;entryX=0;entryY=0.5;entryDx=0;entryDy=0;" edge="1" parent="1" source="qFjIACRI58Vu8LsywiSS-9" target="qFjIACRI58Vu8LsywiSS-22">
          <mxGeometry relative="1" as="geometry" />
        </mxCell>
        <mxCell id="qFjIACRI58Vu8LsywiSS-25" style="edgeStyle=orthogonalEdgeStyle;rounded=0;orthogonalLoop=1;jettySize=auto;html=1;exitX=1;exitY=0.5;exitDx=0;exitDy=0;entryX=0;entryY=0.5;entryDx=0;entryDy=0;" edge="1" parent="1" source="qFjIACRI58Vu8LsywiSS-13" target="qFjIACRI58Vu8LsywiSS-24">
          <mxGeometry relative="1" as="geometry" />
        </mxCell>
        <mxCell id="qFjIACRI58Vu8LsywiSS-9" value="&lt;b&gt;item_features&lt;/b&gt;&lt;div&gt;touchOthers&lt;br&gt;&lt;/div&gt;&lt;div&gt;penOthers&lt;br&gt;&lt;/div&gt;&lt;div&gt;frotOthers&amp;nbsp;&lt;br&gt;&lt;/div&gt;&lt;div&gt;touchSelf&amp;nbsp;&lt;br&gt;&lt;/div&gt;&lt;div&gt;penSelf&amp;nbsp;&lt;br&gt;&lt;/div&gt;" style="rounded=1;whiteSpace=wrap;html=1;" vertex="1" parent="1">
          <mxGeometry x="230" y="690" width="120" height="120" as="geometry" />
        </mxCell>
        <mxCell id="qFjIACRI58Vu8LsywiSS-13" value="&lt;b&gt;device_setting&lt;/b&gt;&lt;div&gt;&lt;div&gt;id (sps name)&lt;br&gt;&lt;/div&gt;&lt;div&gt;type&lt;/div&gt;&lt;div&gt;linear&lt;/div&gt;&lt;div&gt;idle&lt;/div&gt;&lt;div&gt;scale&lt;/div&gt;&lt;div&gt;key (avatar param)&lt;/div&gt;&lt;/div&gt;" style="rounded=1;whiteSpace=wrap;html=1;" vertex="1" parent="1">
          <mxGeometry x="230" y="840" width="120" height="130" as="geometry" />
        </mxCell>
        <mxCell id="qFjIACRI58Vu8LsywiSS-15" value="Actor" style="shape=umlActor;verticalLabelPosition=bottom;verticalAlign=top;html=1;outlineConnect=0;fillColor=#f8cecc;strokeColor=#b85450;" vertex="1" parent="1">
          <mxGeometry x="690" y="890" width="30" height="60" as="geometry" />
        </mxCell>
        <mxCell id="qFjIACRI58Vu8LsywiSS-16" value="" style="shape=image;html=1;verticalLabelPosition=bottom;verticalAlign=top;imageAspect=1;aspect=fixed;image=img/clipart/Gear_128x128.png" vertex="1" parent="1">
          <mxGeometry x="694" y="890" width="22" height="25.81" as="geometry" />
        </mxCell>
        <mxCell id="qFjIACRI58Vu8LsywiSS-19" value="Software_connection&lt;div&gt;bio.port (intiface)&lt;br&gt;&lt;/div&gt;&lt;div&gt;osc.port (VRChat)&lt;br&gt;&lt;/div&gt;" style="rounded=1;whiteSpace=wrap;html=1;" vertex="1" parent="1">
          <mxGeometry x="230" y="1000" width="120" height="60" as="geometry" />
        </mxCell>
        <mxCell id="qFjIACRI58Vu8LsywiSS-22" value="Toggle&lt;div&gt;off = 0&lt;/div&gt;&lt;div&gt;on = 1&lt;/div&gt;" style="ellipse;whiteSpace=wrap;html=1;" vertex="1" parent="1">
          <mxGeometry x="449" y="710" width="120" height="80" as="geometry" />
        </mxCell>
        <mxCell id="qFjIACRI58Vu8LsywiSS-24" value="Float&amp;nbsp;&lt;span style=&quot;background-color: initial;&quot;&gt;0~1&lt;/span&gt;&lt;div&gt;make slider can switch to&amp;nbsp;&lt;/div&gt;&lt;div&gt;nonstep / step (0.1)&amp;nbsp;&lt;/div&gt;" style="ellipse;whiteSpace=wrap;html=1;" vertex="1" parent="1">
          <mxGeometry x="414" y="840" width="190" height="130" as="geometry" />
        </mxCell>
        <mxCell id="qFjIACRI58Vu8LsywiSS-10" style="edgeStyle=orthogonalEdgeStyle;rounded=0;orthogonalLoop=1;jettySize=auto;html=1;exitX=1;exitY=1;exitDx=0;exitDy=0;entryX=0;entryY=0.5;entryDx=0;entryDy=0;fillColor=#d5e8d4;strokeColor=#82b366;" edge="1" parent="1" source="qFjIACRI58Vu8LsywiSS-3" target="qFjIACRI58Vu8LsywiSS-9">
          <mxGeometry relative="1" as="geometry" />
        </mxCell>
        <mxCell id="qFjIACRI58Vu8LsywiSS-34" value="" style="group" vertex="1" connectable="0" parent="1">
          <mxGeometry x="10" y="250" width="370" height="200" as="geometry" />
        </mxCell>
        <mxCell id="qFjIACRI58Vu8LsywiSS-26" value="&lt;div&gt;&lt;br&gt;&lt;/div&gt;" style="whiteSpace=wrap;html=1;align=left;movable=1;resizable=1;rotatable=1;deletable=1;editable=1;locked=0;connectable=1;" vertex="1" parent="qFjIACRI58Vu8LsywiSS-34">
          <mxGeometry width="370" height="200" as="geometry" />
        </mxCell>
        <mxCell id="qFjIACRI58Vu8LsywiSS-27" value="All" style="rounded=0;whiteSpace=wrap;html=1;movable=1;resizable=1;rotatable=1;deletable=1;editable=1;locked=0;connectable=1;" vertex="1" parent="qFjIACRI58Vu8LsywiSS-34">
          <mxGeometry x="55" y="60" width="260" height="50" as="geometry" />
        </mxCell>
        <mxCell id="qFjIACRI58Vu8LsywiSS-29" value="top to down (&amp;lt;deviceId&amp;gt;.~~~)" style="rounded=0;whiteSpace=wrap;html=1;movable=1;resizable=1;rotatable=1;deletable=1;editable=1;locked=0;connectable=1;" vertex="1" parent="qFjIACRI58Vu8LsywiSS-34">
          <mxGeometry x="55" y="130" width="260" height="50" as="geometry" />
        </mxCell>
        <mxCell id="qFjIACRI58Vu8LsywiSS-33" value="OGB config excute condition" style="text;strokeColor=none;fillColor=none;html=1;fontSize=24;fontStyle=1;verticalAlign=middle;align=center;" vertex="1" parent="qFjIACRI58Vu8LsywiSS-34">
          <mxGeometry x="135" y="10" width="100" height="40" as="geometry" />
        </mxCell>
        <mxCell id="qFjIACRI58Vu8LsywiSS-85" value="" style="group" vertex="1" connectable="0" parent="1">
          <mxGeometry x="420" y="320" width="830" height="370" as="geometry" />
        </mxCell>
        <mxCell id="qFjIACRI58Vu8LsywiSS-63" value="" style="whiteSpace=wrap;html=1;" vertex="1" parent="qFjIACRI58Vu8LsywiSS-85">
          <mxGeometry width="830" height="370" as="geometry" />
        </mxCell>
        <mxCell id="qFjIACRI58Vu8LsywiSS-65" style="edgeStyle=orthogonalEdgeStyle;rounded=0;orthogonalLoop=1;jettySize=auto;html=1;exitX=0.5;exitY=0;exitDx=0;exitDy=0;entryX=0.5;entryY=1;entryDx=0;entryDy=0;" edge="1" parent="qFjIACRI58Vu8LsywiSS-85" source="qFjIACRI58Vu8LsywiSS-39" target="qFjIACRI58Vu8LsywiSS-46">
          <mxGeometry relative="1" as="geometry" />
        </mxCell>
        <mxCell id="qFjIACRI58Vu8LsywiSS-66" style="edgeStyle=orthogonalEdgeStyle;rounded=0;orthogonalLoop=1;jettySize=auto;html=1;entryX=0.5;entryY=1;entryDx=0;entryDy=0;" edge="1" parent="qFjIACRI58Vu8LsywiSS-85" source="qFjIACRI58Vu8LsywiSS-39" target="qFjIACRI58Vu8LsywiSS-40">
          <mxGeometry relative="1" as="geometry" />
        </mxCell>
        <mxCell id="qFjIACRI58Vu8LsywiSS-39" value="Toggle&lt;div&gt;off = 0&lt;/div&gt;&lt;div&gt;on = 1&lt;/div&gt;" style="ellipse;whiteSpace=wrap;html=1;" vertex="1" parent="qFjIACRI58Vu8LsywiSS-85">
          <mxGeometry x="93" y="270" width="120" height="80" as="geometry" />
        </mxCell>
        <mxCell id="qFjIACRI58Vu8LsywiSS-67" style="edgeStyle=orthogonalEdgeStyle;rounded=0;orthogonalLoop=1;jettySize=auto;html=1;exitX=0.5;exitY=0;exitDx=0;exitDy=0;entryX=0.5;entryY=1;entryDx=0;entryDy=0;" edge="1" parent="qFjIACRI58Vu8LsywiSS-85" source="qFjIACRI58Vu8LsywiSS-40" target="qFjIACRI58Vu8LsywiSS-44">
          <mxGeometry relative="1" as="geometry" />
        </mxCell>
        <mxCell id="qFjIACRI58Vu8LsywiSS-40" value="&lt;b&gt;item_features&lt;/b&gt;" style="rounded=1;whiteSpace=wrap;html=1;" vertex="1" parent="qFjIACRI58Vu8LsywiSS-85">
          <mxGeometry x="23" y="180" width="120" height="60" as="geometry" />
        </mxCell>
        <mxCell id="qFjIACRI58Vu8LsywiSS-44" value="device / all&amp;nbsp;" style="rounded=1;whiteSpace=wrap;html=1;" vertex="1" parent="qFjIACRI58Vu8LsywiSS-85">
          <mxGeometry x="93" y="80" width="120" height="60" as="geometry" />
        </mxCell>
        <mxCell id="qFjIACRI58Vu8LsywiSS-68" style="edgeStyle=orthogonalEdgeStyle;rounded=0;orthogonalLoop=1;jettySize=auto;html=1;exitX=0.5;exitY=0;exitDx=0;exitDy=0;entryX=0.5;entryY=1;entryDx=0;entryDy=0;" edge="1" parent="qFjIACRI58Vu8LsywiSS-85" source="qFjIACRI58Vu8LsywiSS-46" target="qFjIACRI58Vu8LsywiSS-44">
          <mxGeometry relative="1" as="geometry" />
        </mxCell>
        <mxCell id="qFjIACRI58Vu8LsywiSS-46" value="linear" style="rounded=1;whiteSpace=wrap;html=1;" vertex="1" parent="qFjIACRI58Vu8LsywiSS-85">
          <mxGeometry x="153" y="180" width="120" height="60" as="geometry" />
        </mxCell>
        <mxCell id="qFjIACRI58Vu8LsywiSS-83" style="edgeStyle=orthogonalEdgeStyle;rounded=0;orthogonalLoop=1;jettySize=auto;html=1;exitX=0.5;exitY=0;exitDx=0;exitDy=0;entryX=0.5;entryY=1;entryDx=0;entryDy=0;" edge="1" parent="qFjIACRI58Vu8LsywiSS-85" source="qFjIACRI58Vu8LsywiSS-50" target="qFjIACRI58Vu8LsywiSS-79">
          <mxGeometry relative="1" as="geometry" />
        </mxCell>
        <mxCell id="qFjIACRI58Vu8LsywiSS-50" value="&lt;b&gt;item_type(wildcard)&lt;/b&gt;&lt;div&gt;orf&amp;nbsp;&lt;/div&gt;&lt;div&gt;pen&lt;/div&gt;&lt;div&gt;touch&lt;/div&gt;" style="rounded=1;whiteSpace=wrap;html=1;" vertex="1" parent="qFjIACRI58Vu8LsywiSS-85">
          <mxGeometry x="289" y="280" width="120" height="60" as="geometry" />
        </mxCell>
        <mxCell id="qFjIACRI58Vu8LsywiSS-86" style="edgeStyle=orthogonalEdgeStyle;rounded=0;orthogonalLoop=1;jettySize=auto;html=1;exitX=0.5;exitY=0;exitDx=0;exitDy=0;entryX=0.5;entryY=1;entryDx=0;entryDy=0;" edge="1" parent="qFjIACRI58Vu8LsywiSS-85" source="qFjIACRI58Vu8LsywiSS-52" target="qFjIACRI58Vu8LsywiSS-80">
          <mxGeometry relative="1" as="geometry" />
        </mxCell>
        <mxCell id="qFjIACRI58Vu8LsywiSS-52" value="&lt;b&gt;id (sps name)&lt;/b&gt;&lt;div&gt;key (avatar param)&lt;b&gt;&lt;br&gt;&lt;/b&gt;&lt;/div&gt;" style="rounded=1;whiteSpace=wrap;html=1;" vertex="1" parent="qFjIACRI58Vu8LsywiSS-85">
          <mxGeometry x="420" y="280" width="120" height="60" as="geometry" />
        </mxCell>
        <mxCell id="qFjIACRI58Vu8LsywiSS-53" value="device / all&lt;div&gt;(link device to specifc)&amp;nbsp;&lt;/div&gt;" style="rounded=1;whiteSpace=wrap;html=1;" vertex="1" parent="qFjIACRI58Vu8LsywiSS-85">
          <mxGeometry x="343" y="80" width="140" height="60" as="geometry" />
        </mxCell>
        <mxCell id="qFjIACRI58Vu8LsywiSS-62" value="Possibly Config To generate" style="text;html=1;align=center;verticalAlign=middle;whiteSpace=wrap;rounded=0;" vertex="1" parent="qFjIACRI58Vu8LsywiSS-85">
          <mxGeometry width="350" height="30" as="geometry" />
        </mxCell>
        <mxCell id="qFjIACRI58Vu8LsywiSS-69" value="device / all&lt;span style=&quot;background-color: initial;&quot;&gt;&amp;nbsp;&lt;/span&gt;" style="rounded=1;whiteSpace=wrap;html=1;" vertex="1" parent="qFjIACRI58Vu8LsywiSS-85">
          <mxGeometry x="610" y="80" width="140" height="60" as="geometry" />
        </mxCell>
        <mxCell id="qFjIACRI58Vu8LsywiSS-77" style="edgeStyle=orthogonalEdgeStyle;rounded=0;orthogonalLoop=1;jettySize=auto;html=1;exitX=0.5;exitY=0;exitDx=0;exitDy=0;entryX=0.5;entryY=1;entryDx=0;entryDy=0;" edge="1" parent="qFjIACRI58Vu8LsywiSS-85" source="qFjIACRI58Vu8LsywiSS-71" target="qFjIACRI58Vu8LsywiSS-72">
          <mxGeometry relative="1" as="geometry" />
        </mxCell>
        <mxCell id="qFjIACRI58Vu8LsywiSS-78" style="edgeStyle=orthogonalEdgeStyle;rounded=0;orthogonalLoop=1;jettySize=auto;html=1;entryX=0.5;entryY=1;entryDx=0;entryDy=0;" edge="1" parent="qFjIACRI58Vu8LsywiSS-85" source="qFjIACRI58Vu8LsywiSS-71" target="qFjIACRI58Vu8LsywiSS-73">
          <mxGeometry relative="1" as="geometry" />
        </mxCell>
        <mxCell id="qFjIACRI58Vu8LsywiSS-71" value="Float&amp;nbsp;&lt;span style=&quot;background-color: initial;&quot;&gt;0~1&lt;br&gt;&lt;/span&gt;" style="ellipse;whiteSpace=wrap;html=1;" vertex="1" parent="qFjIACRI58Vu8LsywiSS-85">
          <mxGeometry x="617.5" y="270" width="125" height="80" as="geometry" />
        </mxCell>
        <mxCell id="qFjIACRI58Vu8LsywiSS-75" style="edgeStyle=orthogonalEdgeStyle;rounded=0;orthogonalLoop=1;jettySize=auto;html=1;exitX=0.5;exitY=0;exitDx=0;exitDy=0;entryX=0.5;entryY=1;entryDx=0;entryDy=0;" edge="1" parent="qFjIACRI58Vu8LsywiSS-85" source="qFjIACRI58Vu8LsywiSS-72" target="qFjIACRI58Vu8LsywiSS-69">
          <mxGeometry relative="1" as="geometry" />
        </mxCell>
        <mxCell id="qFjIACRI58Vu8LsywiSS-72" value="Scale" style="rounded=1;whiteSpace=wrap;html=1;" vertex="1" parent="qFjIACRI58Vu8LsywiSS-85">
          <mxGeometry x="550" y="180" width="120" height="60" as="geometry" />
        </mxCell>
        <mxCell id="qFjIACRI58Vu8LsywiSS-76" style="edgeStyle=orthogonalEdgeStyle;rounded=0;orthogonalLoop=1;jettySize=auto;html=1;exitX=0.5;exitY=0;exitDx=0;exitDy=0;" edge="1" parent="qFjIACRI58Vu8LsywiSS-85" source="qFjIACRI58Vu8LsywiSS-73">
          <mxGeometry relative="1" as="geometry">
            <mxPoint x="680" y="140" as="targetPoint" />
          </mxGeometry>
        </mxCell>
        <mxCell id="qFjIACRI58Vu8LsywiSS-73" value="idle" style="rounded=1;whiteSpace=wrap;html=1;" vertex="1" parent="qFjIACRI58Vu8LsywiSS-85">
          <mxGeometry x="690" y="180" width="120" height="60" as="geometry" />
        </mxCell>
        <mxCell id="qFjIACRI58Vu8LsywiSS-81" style="edgeStyle=orthogonalEdgeStyle;rounded=0;orthogonalLoop=1;jettySize=auto;html=1;exitX=0.5;exitY=0;exitDx=0;exitDy=0;entryX=0.5;entryY=1;entryDx=0;entryDy=0;" edge="1" parent="qFjIACRI58Vu8LsywiSS-85" source="qFjIACRI58Vu8LsywiSS-79" target="qFjIACRI58Vu8LsywiSS-53">
          <mxGeometry relative="1" as="geometry" />
        </mxCell>
        <mxCell id="qFjIACRI58Vu8LsywiSS-79" value="&lt;b&gt;type&lt;/b&gt;" style="rounded=1;whiteSpace=wrap;html=1;" vertex="1" parent="qFjIACRI58Vu8LsywiSS-85">
          <mxGeometry x="288" y="180" width="120" height="60" as="geometry" />
        </mxCell>
        <mxCell id="qFjIACRI58Vu8LsywiSS-82" style="edgeStyle=orthogonalEdgeStyle;rounded=0;orthogonalLoop=1;jettySize=auto;html=1;exitX=0.5;exitY=0;exitDx=0;exitDy=0;" edge="1" parent="qFjIACRI58Vu8LsywiSS-85" source="qFjIACRI58Vu8LsywiSS-80">
          <mxGeometry relative="1" as="geometry">
            <mxPoint x="410" y="140" as="targetPoint" />
          </mxGeometry>
        </mxCell>
        <mxCell id="qFjIACRI58Vu8LsywiSS-80" value="id / key&amp;nbsp;" style="rounded=1;whiteSpace=wrap;html=1;" vertex="1" parent="qFjIACRI58Vu8LsywiSS-85">
          <mxGeometry x="418" y="180" width="120" height="60" as="geometry" />
        </mxCell>
        <mxCell id="qFjIACRI58Vu8LsywiSS-87" value="???&lt;div&gt;maxLevelParam&amp;nbsp;&lt;br&gt;&lt;/div&gt;" style="rounded=0;whiteSpace=wrap;html=1;" vertex="1" parent="1">
          <mxGeometry x="230" y="1070" width="120" height="60" as="geometry" />
        </mxCell>
      </root>
    </mxGraphModel>
  </diagram>
</mxfile>
